<mxfile host="app.diagrams.net" modified="2023-10-17T23:10:57.424Z" agent="Mozilla/5.0 (Windows NT 10.0; Win64; x64) AppleWebKit/537.36 (KHTML, like Gecko) Chrome/115.0.0.0 Safari/537.36" etag="obUhe5H_INM_xNBsfFgC" version="21.8.2" type="github">
  <diagram id="C5RBs43oDa-KdzZeNtuy" name="Page-1">
    <mxGraphModel dx="1588" dy="942" grid="1" gridSize="10" guides="1" tooltips="1" connect="1" arrows="1" fold="1" page="1" pageScale="1" pageWidth="3300" pageHeight="4681" math="0" shadow="0">
      <root>
        <mxCell id="WIyWlLk6GJQsqaUBKTNV-0" />
        <mxCell id="WIyWlLk6GJQsqaUBKTNV-1" parent="WIyWlLk6GJQsqaUBKTNV-0" />
        <mxCell id="c36ltqFskDGb-_e4Guu1-21" style="edgeStyle=orthogonalEdgeStyle;rounded=0;orthogonalLoop=1;jettySize=auto;html=1;" parent="WIyWlLk6GJQsqaUBKTNV-1" source="c36ltqFskDGb-_e4Guu1-0" target="c36ltqFskDGb-_e4Guu1-2" edge="1">
          <mxGeometry relative="1" as="geometry" />
        </mxCell>
        <mxCell id="c36ltqFskDGb-_e4Guu1-0" value="Start" style="ellipse;whiteSpace=wrap;html=1;" parent="WIyWlLk6GJQsqaUBKTNV-1" vertex="1">
          <mxGeometry x="160" y="70" width="120" height="50" as="geometry" />
        </mxCell>
        <mxCell id="c36ltqFskDGb-_e4Guu1-24" style="edgeStyle=orthogonalEdgeStyle;rounded=0;orthogonalLoop=1;jettySize=auto;html=1;entryX=0.5;entryY=0;entryDx=0;entryDy=0;" parent="WIyWlLk6GJQsqaUBKTNV-1" source="c36ltqFskDGb-_e4Guu1-2" target="c36ltqFskDGb-_e4Guu1-3" edge="1">
          <mxGeometry relative="1" as="geometry" />
        </mxCell>
        <mxCell id="c36ltqFskDGb-_e4Guu1-2" value="Enter the website the password is being created for" style="rounded=0;whiteSpace=wrap;html=1;" parent="WIyWlLk6GJQsqaUBKTNV-1" vertex="1">
          <mxGeometry x="160" y="170" width="120" height="60" as="geometry" />
        </mxCell>
        <mxCell id="c36ltqFskDGb-_e4Guu1-25" value="" style="edgeStyle=orthogonalEdgeStyle;rounded=0;orthogonalLoop=1;jettySize=auto;html=1;" parent="WIyWlLk6GJQsqaUBKTNV-1" source="c36ltqFskDGb-_e4Guu1-3" target="c36ltqFskDGb-_e4Guu1-5" edge="1">
          <mxGeometry relative="1" as="geometry" />
        </mxCell>
        <mxCell id="c36ltqFskDGb-_e4Guu1-3" value="Keep first and last letter" style="rounded=0;whiteSpace=wrap;html=1;" parent="WIyWlLk6GJQsqaUBKTNV-1" vertex="1">
          <mxGeometry x="160" y="260" width="120" height="60" as="geometry" />
        </mxCell>
        <mxCell id="c36ltqFskDGb-_e4Guu1-27" style="edgeStyle=orthogonalEdgeStyle;rounded=0;orthogonalLoop=1;jettySize=auto;html=1;entryX=0.5;entryY=0;entryDx=0;entryDy=0;" parent="WIyWlLk6GJQsqaUBKTNV-1" target="c36ltqFskDGb-_e4Guu1-6" edge="1">
          <mxGeometry relative="1" as="geometry">
            <mxPoint x="220" y="549" as="sourcePoint" />
            <Array as="points">
              <mxPoint x="220" y="570" />
              <mxPoint x="220" y="570" />
            </Array>
          </mxGeometry>
        </mxCell>
        <mxCell id="JGRWPbg7qF9QHGsSfQNC-0" style="edgeStyle=orthogonalEdgeStyle;rounded=0;orthogonalLoop=1;jettySize=auto;html=1;" edge="1" parent="WIyWlLk6GJQsqaUBKTNV-1" source="c36ltqFskDGb-_e4Guu1-5">
          <mxGeometry relative="1" as="geometry">
            <mxPoint x="220.0000000000001" y="470" as="targetPoint" />
          </mxGeometry>
        </mxCell>
        <mxCell id="c36ltqFskDGb-_e4Guu1-5" value="Enter two words that can be easily remembered" style="rounded=0;whiteSpace=wrap;html=1;" parent="WIyWlLk6GJQsqaUBKTNV-1" vertex="1">
          <mxGeometry x="160" y="370" width="120" height="60" as="geometry" />
        </mxCell>
        <mxCell id="c36ltqFskDGb-_e4Guu1-28" style="edgeStyle=orthogonalEdgeStyle;rounded=0;orthogonalLoop=1;jettySize=auto;html=1;entryX=0.5;entryY=0;entryDx=0;entryDy=0;" parent="WIyWlLk6GJQsqaUBKTNV-1" source="c36ltqFskDGb-_e4Guu1-6" target="c36ltqFskDGb-_e4Guu1-10" edge="1">
          <mxGeometry relative="1" as="geometry" />
        </mxCell>
        <mxCell id="c36ltqFskDGb-_e4Guu1-6" value="Keep first letter of first word" style="rounded=0;whiteSpace=wrap;html=1;" parent="WIyWlLk6GJQsqaUBKTNV-1" vertex="1">
          <mxGeometry x="160" y="599" width="120" height="60" as="geometry" />
        </mxCell>
        <mxCell id="c36ltqFskDGb-_e4Guu1-20" style="edgeStyle=orthogonalEdgeStyle;rounded=0;orthogonalLoop=1;jettySize=auto;html=1;entryX=0.5;entryY=0;entryDx=0;entryDy=0;" parent="WIyWlLk6GJQsqaUBKTNV-1" source="c36ltqFskDGb-_e4Guu1-10" target="c36ltqFskDGb-_e4Guu1-13" edge="1">
          <mxGeometry relative="1" as="geometry" />
        </mxCell>
        <mxCell id="c36ltqFskDGb-_e4Guu1-10" value="Capitalize letter" style="rounded=0;whiteSpace=wrap;html=1;" parent="WIyWlLk6GJQsqaUBKTNV-1" vertex="1">
          <mxGeometry x="160" y="704" width="120" height="60" as="geometry" />
        </mxCell>
        <mxCell id="c36ltqFskDGb-_e4Guu1-30" style="edgeStyle=orthogonalEdgeStyle;rounded=0;orthogonalLoop=1;jettySize=auto;html=1;" parent="WIyWlLk6GJQsqaUBKTNV-1" source="c36ltqFskDGb-_e4Guu1-13" edge="1">
          <mxGeometry relative="1" as="geometry">
            <mxPoint x="220" y="929" as="targetPoint" />
          </mxGeometry>
        </mxCell>
        <mxCell id="c36ltqFskDGb-_e4Guu1-13" value="Keep first letter of second word" style="rounded=0;whiteSpace=wrap;html=1;" parent="WIyWlLk6GJQsqaUBKTNV-1" vertex="1">
          <mxGeometry x="160" y="822" width="120" height="60" as="geometry" />
        </mxCell>
        <mxCell id="JGRWPbg7qF9QHGsSfQNC-21" style="edgeStyle=orthogonalEdgeStyle;rounded=0;orthogonalLoop=1;jettySize=auto;html=1;" edge="1" parent="WIyWlLk6GJQsqaUBKTNV-1" source="c36ltqFskDGb-_e4Guu1-16">
          <mxGeometry relative="1" as="geometry">
            <mxPoint x="220.0000000000001" y="1040" as="targetPoint" />
          </mxGeometry>
        </mxCell>
        <mxCell id="c36ltqFskDGb-_e4Guu1-16" value="Capitalize letter&amp;nbsp;" style="rounded=0;whiteSpace=wrap;html=1;" parent="WIyWlLk6GJQsqaUBKTNV-1" vertex="1">
          <mxGeometry x="160" y="929" width="120" height="60" as="geometry" />
        </mxCell>
        <mxCell id="JGRWPbg7qF9QHGsSfQNC-5" value="" style="edgeStyle=orthogonalEdgeStyle;rounded=0;orthogonalLoop=1;jettySize=auto;html=1;" edge="1" parent="WIyWlLk6GJQsqaUBKTNV-1" source="JGRWPbg7qF9QHGsSfQNC-2">
          <mxGeometry relative="1" as="geometry">
            <mxPoint x="350" y="510" as="targetPoint" />
          </mxGeometry>
        </mxCell>
        <mxCell id="JGRWPbg7qF9QHGsSfQNC-2" value="Do the words have the same amount of letters?" style="rhombus;whiteSpace=wrap;html=1;" vertex="1" parent="WIyWlLk6GJQsqaUBKTNV-1">
          <mxGeometry x="150" y="470" width="140" height="80" as="geometry" />
        </mxCell>
        <mxCell id="JGRWPbg7qF9QHGsSfQNC-7" value="" style="edgeStyle=orthogonalEdgeStyle;rounded=0;orthogonalLoop=1;jettySize=auto;html=1;" edge="1" parent="WIyWlLk6GJQsqaUBKTNV-1" source="JGRWPbg7qF9QHGsSfQNC-4" target="JGRWPbg7qF9QHGsSfQNC-6">
          <mxGeometry relative="1" as="geometry" />
        </mxCell>
        <mxCell id="JGRWPbg7qF9QHGsSfQNC-4" value="Ask for a single digit number" style="whiteSpace=wrap;html=1;" vertex="1" parent="WIyWlLk6GJQsqaUBKTNV-1">
          <mxGeometry x="350" y="480" width="120" height="60" as="geometry" />
        </mxCell>
        <mxCell id="JGRWPbg7qF9QHGsSfQNC-9" value="" style="edgeStyle=orthogonalEdgeStyle;rounded=0;orthogonalLoop=1;jettySize=auto;html=1;" edge="1" parent="WIyWlLk6GJQsqaUBKTNV-1" source="JGRWPbg7qF9QHGsSfQNC-6" target="JGRWPbg7qF9QHGsSfQNC-8">
          <mxGeometry relative="1" as="geometry" />
        </mxCell>
        <mxCell id="JGRWPbg7qF9QHGsSfQNC-6" value="Add number to end of shorter word" style="whiteSpace=wrap;html=1;" vertex="1" parent="WIyWlLk6GJQsqaUBKTNV-1">
          <mxGeometry x="540" y="480" width="120" height="60" as="geometry" />
        </mxCell>
        <mxCell id="JGRWPbg7qF9QHGsSfQNC-15" style="edgeStyle=orthogonalEdgeStyle;rounded=0;orthogonalLoop=1;jettySize=auto;html=1;entryX=0.5;entryY=0;entryDx=0;entryDy=0;" edge="1" parent="WIyWlLk6GJQsqaUBKTNV-1" source="JGRWPbg7qF9QHGsSfQNC-8" target="JGRWPbg7qF9QHGsSfQNC-6">
          <mxGeometry relative="1" as="geometry">
            <Array as="points">
              <mxPoint x="795" y="440" />
              <mxPoint x="600" y="440" />
            </Array>
          </mxGeometry>
        </mxCell>
        <mxCell id="JGRWPbg7qF9QHGsSfQNC-16" value="N" style="edgeLabel;html=1;align=center;verticalAlign=middle;resizable=0;points=[];" vertex="1" connectable="0" parent="JGRWPbg7qF9QHGsSfQNC-15">
          <mxGeometry x="0.0322" y="2" relative="1" as="geometry">
            <mxPoint x="12" y="-12" as="offset" />
          </mxGeometry>
        </mxCell>
        <mxCell id="JGRWPbg7qF9QHGsSfQNC-17" style="edgeStyle=orthogonalEdgeStyle;rounded=0;orthogonalLoop=1;jettySize=auto;html=1;entryX=1;entryY=0.5;entryDx=0;entryDy=0;" edge="1" parent="WIyWlLk6GJQsqaUBKTNV-1" source="JGRWPbg7qF9QHGsSfQNC-8" target="c36ltqFskDGb-_e4Guu1-6">
          <mxGeometry relative="1" as="geometry">
            <Array as="points">
              <mxPoint x="795" y="629" />
            </Array>
          </mxGeometry>
        </mxCell>
        <mxCell id="JGRWPbg7qF9QHGsSfQNC-8" value="Do the words have the same amount of letters?" style="rhombus;whiteSpace=wrap;html=1;" vertex="1" parent="WIyWlLk6GJQsqaUBKTNV-1">
          <mxGeometry x="710" y="470" width="170" height="80" as="geometry" />
        </mxCell>
        <mxCell id="JGRWPbg7qF9QHGsSfQNC-18" value="Y" style="text;html=1;align=center;verticalAlign=middle;resizable=0;points=[];autosize=1;strokeColor=none;fillColor=none;" vertex="1" parent="WIyWlLk6GJQsqaUBKTNV-1">
          <mxGeometry x="511" y="608" width="30" height="30" as="geometry" />
        </mxCell>
        <mxCell id="JGRWPbg7qF9QHGsSfQNC-34" style="edgeStyle=orthogonalEdgeStyle;rounded=0;orthogonalLoop=1;jettySize=auto;html=1;" edge="1" parent="WIyWlLk6GJQsqaUBKTNV-1" source="JGRWPbg7qF9QHGsSfQNC-26">
          <mxGeometry relative="1" as="geometry">
            <mxPoint x="359.9999999999999" y="1080" as="targetPoint" />
          </mxGeometry>
        </mxCell>
        <mxCell id="JGRWPbg7qF9QHGsSfQNC-45" value="" style="edgeStyle=orthogonalEdgeStyle;rounded=0;orthogonalLoop=1;jettySize=auto;html=1;" edge="1" parent="WIyWlLk6GJQsqaUBKTNV-1" source="JGRWPbg7qF9QHGsSfQNC-26" target="JGRWPbg7qF9QHGsSfQNC-44">
          <mxGeometry relative="1" as="geometry" />
        </mxCell>
        <mxCell id="JGRWPbg7qF9QHGsSfQNC-26" value="Are there any more characters in the words?" style="rhombus;whiteSpace=wrap;html=1;rounded=0;" vertex="1" parent="WIyWlLk6GJQsqaUBKTNV-1">
          <mxGeometry x="145" y="1040" width="150" height="80" as="geometry" />
        </mxCell>
        <mxCell id="JGRWPbg7qF9QHGsSfQNC-37" value="" style="edgeStyle=orthogonalEdgeStyle;rounded=0;orthogonalLoop=1;jettySize=auto;html=1;" edge="1" parent="WIyWlLk6GJQsqaUBKTNV-1" source="JGRWPbg7qF9QHGsSfQNC-33" target="JGRWPbg7qF9QHGsSfQNC-36">
          <mxGeometry relative="1" as="geometry" />
        </mxCell>
        <mxCell id="JGRWPbg7qF9QHGsSfQNC-33" value="Keep next character in first word" style="rounded=0;whiteSpace=wrap;html=1;" vertex="1" parent="WIyWlLk6GJQsqaUBKTNV-1">
          <mxGeometry x="360" y="1050" width="120" height="60" as="geometry" />
        </mxCell>
        <mxCell id="JGRWPbg7qF9QHGsSfQNC-38" style="edgeStyle=orthogonalEdgeStyle;rounded=0;orthogonalLoop=1;jettySize=auto;html=1;" edge="1" parent="WIyWlLk6GJQsqaUBKTNV-1" source="JGRWPbg7qF9QHGsSfQNC-36">
          <mxGeometry relative="1" as="geometry">
            <mxPoint x="220" y="1010" as="targetPoint" />
            <Array as="points">
              <mxPoint x="580" y="1010" />
            </Array>
          </mxGeometry>
        </mxCell>
        <mxCell id="JGRWPbg7qF9QHGsSfQNC-36" value="Keep next character in second word" style="rounded=0;whiteSpace=wrap;html=1;" vertex="1" parent="WIyWlLk6GJQsqaUBKTNV-1">
          <mxGeometry x="520" y="1050" width="120" height="60" as="geometry" />
        </mxCell>
        <mxCell id="JGRWPbg7qF9QHGsSfQNC-39" value="Y" style="text;html=1;align=center;verticalAlign=middle;resizable=0;points=[];autosize=1;strokeColor=none;fillColor=none;" vertex="1" parent="WIyWlLk6GJQsqaUBKTNV-1">
          <mxGeometry x="307" y="1055" width="30" height="30" as="geometry" />
        </mxCell>
        <mxCell id="JGRWPbg7qF9QHGsSfQNC-44" value="End" style="ellipse;whiteSpace=wrap;html=1;rounded=0;" vertex="1" parent="WIyWlLk6GJQsqaUBKTNV-1">
          <mxGeometry x="152.5" y="1150" width="135" height="50" as="geometry" />
        </mxCell>
        <mxCell id="JGRWPbg7qF9QHGsSfQNC-46" value="N" style="text;html=1;align=center;verticalAlign=middle;resizable=0;points=[];autosize=1;strokeColor=none;fillColor=none;" vertex="1" parent="WIyWlLk6GJQsqaUBKTNV-1">
          <mxGeometry x="195" y="1118" width="30" height="30" as="geometry" />
        </mxCell>
        <mxCell id="JGRWPbg7qF9QHGsSfQNC-47" value="N" style="text;html=1;align=center;verticalAlign=middle;resizable=0;points=[];autosize=1;strokeColor=none;fillColor=none;" vertex="1" parent="WIyWlLk6GJQsqaUBKTNV-1">
          <mxGeometry x="299" y="483" width="30" height="30" as="geometry" />
        </mxCell>
        <mxCell id="JGRWPbg7qF9QHGsSfQNC-48" value="Y" style="text;html=1;align=center;verticalAlign=middle;resizable=0;points=[];autosize=1;strokeColor=none;fillColor=none;" vertex="1" parent="WIyWlLk6GJQsqaUBKTNV-1">
          <mxGeometry x="195" y="558" width="30" height="30" as="geometry" />
        </mxCell>
      </root>
    </mxGraphModel>
  </diagram>
</mxfile>
